<svg width="64" height="64" viewBox="0 0 64 64" fill="none" xmlns="http://www.w3.org/2000/svg">
<circle cx="32" cy="32" r="32" fill="#01B8C4"/>
<mask id="mask0_1329_26844" style="mask-type:alpha" maskUnits="userSpaceOnUse" x="0" y="0" width="64" height="64">
<circle cx="32" cy="32" r="32" fill="#01B8C4"/>
</mask>
<g mask="url(#mask0_1329_26844)">
<path d="M31.4771 12C20.1869 12 11 21.186 11 32.4774C11 43.7688 20.1869 52.9546 31.4771 52.9546C36.6899 52.9546 41.4397 50.9801 45.0585 47.7606L61.9438 64.6471C62.1791 64.8823 62.4875 65 62.7957 65C63.1038 65 63.4119 64.8823 63.6472 64.6471C64.1177 64.1768 64.1176 63.4145 63.647 62.9439L46.7617 46.0573C49.9804 42.4388 51.9547 37.69 51.9547 32.4774C51.9547 21.186 42.7674 12 31.4771 12ZM31.4771 14.4092C41.4405 14.4092 49.5453 22.514 49.5453 32.4774C49.5453 42.4408 41.4405 50.5456 31.4771 50.5456C21.5138 50.5456 13.4089 42.4408 13.4089 32.4774C13.4089 22.514 21.5138 14.4092 31.4771 14.4092ZM31.6611 19.7626C28.2487 19.7626 25.4735 22.4544 25.4735 25.7627C25.4735 29.0709 28.2487 31.7628 31.6611 31.7628C35.0735 31.7628 37.8484 29.0709 37.8484 25.7627C37.8484 22.4544 35.0735 19.7626 31.6611 19.7626ZM31.6611 22.1625C33.7081 22.1625 35.3738 23.7774 35.3738 25.7627C35.3738 27.7479 33.7081 29.3627 31.6611 29.3627C29.6141 29.3627 27.9484 27.7479 27.9484 25.7627C27.9484 23.7774 29.6141 22.1625 31.6611 22.1625ZM31.6611 32.9629C28.2487 32.9629 25.1741 34.3095 23.1971 35.4391C21.5485 36.3826 20.524 38.2141 20.524 40.2193V40.9881C20.524 42.5187 21.713 43.7632 23.1751 43.7632H40.1462C41.609 43.7632 42.7982 42.5187 42.7982 40.9881V40.2193C42.7982 38.2141 41.7735 36.3826 40.1248 35.4391C38.1479 34.3095 35.0735 32.9629 31.6611 32.9629ZM31.6611 35.363C34.518 35.363 37.1565 36.5288 38.8679 37.5062C39.7523 38.0124 40.3233 39.0765 40.3233 40.2193V40.9881C40.3233 41.2377 40.1757 41.3631 40.1462 41.3631H23.1751C23.1456 41.3631 22.9986 41.2377 22.9986 40.9881V40.2193C22.9986 39.0766 23.5689 38.0124 24.4541 37.5062C26.1647 36.5288 28.8041 35.363 31.6611 35.363Z" fill="white"/>
</g>
</svg>
