<svg width="64" height="64" viewBox="0 0 64 64" fill="none" xmlns="http://www.w3.org/2000/svg">
<circle cx="32" cy="32" r="32" fill="#01B8C4"/>
<path d="M21.3451 37.3854C22.4023 37.3854 23.4357 37.0719 24.3147 36.4846C25.1937 35.8973 25.8788 35.0625 26.2834 34.0858C26.6879 33.1091 26.7938 32.0344 26.5875 30.9975C26.3813 29.9607 25.8722 29.0083 25.1247 28.2607C24.3772 27.5132 23.4247 27.0041 22.3879 26.7979C21.351 26.5917 20.2763 26.6975 19.2996 27.1021C18.3229 27.5066 17.4881 28.1917 16.9008 29.0707C16.3135 29.9497 16 30.9831 16 32.0403C16.0016 33.4574 16.5653 34.816 17.5673 35.8181C18.5694 36.8202 19.928 37.3838 21.3451 37.3854ZM21.3451 28.5676C22.0319 28.5676 22.7034 28.7713 23.2744 29.1529C23.8455 29.5345 24.2906 30.0768 24.5534 30.7114C24.8163 31.3459 24.8851 32.0442 24.7511 32.7178C24.6171 33.3914 24.2863 34.0102 23.8007 34.4959C23.315 34.9815 22.6962 35.3123 22.0226 35.4463C21.349 35.5803 20.6507 35.5115 20.0162 35.2486C19.3816 34.9858 18.8393 34.5407 18.4577 33.9696C18.0761 33.3985 17.8724 32.7271 17.8724 32.0403C17.8735 31.1196 18.2397 30.2369 18.8907 29.5859C19.5418 28.9349 20.4244 28.5687 21.3451 28.5676Z" fill="white"/>
<path d="M30.4569 30.7722H38.246C38.4943 30.7722 38.7324 30.6736 38.908 30.498C39.0836 30.3224 39.1822 30.0843 39.1822 29.836C39.1822 29.5877 39.0836 29.3496 38.908 29.174C38.7324 28.9984 38.4943 28.8998 38.246 28.8998H30.4569C30.2086 28.8998 29.9704 28.9984 29.7949 29.174C29.6193 29.3496 29.5207 29.5877 29.5207 29.836C29.5207 30.0843 29.6193 30.3224 29.7949 30.498C29.9704 30.6736 30.2086 30.7722 30.4569 30.7722Z" fill="white"/>
<path d="M30.4569 35.1809H47.0638C47.3121 35.1809 47.5502 35.0823 47.7258 34.9067C47.9014 34.7311 48 34.493 48 34.2447C48 33.9964 47.9014 33.7583 47.7258 33.5827C47.5502 33.4071 47.3121 33.3085 47.0638 33.3085H30.4569C30.2086 33.3085 29.9704 33.4071 29.7949 33.5827C29.6193 33.7583 29.5207 33.9964 29.5207 34.2447C29.5207 34.493 29.6193 34.7311 29.7949 34.9067C29.9704 35.0823 30.2086 35.1809 30.4569 35.1809Z" fill="white"/>
<path d="M21.3451 23.6907C22.4023 23.6907 23.4358 23.3773 24.3149 22.79C25.194 22.2026 25.8791 21.3678 26.2837 20.3911C26.6884 19.4144 26.7942 18.3396 26.588 17.3027C26.3818 16.2658 25.8727 15.3133 25.1252 14.5657C24.3776 13.8181 23.4252 13.309 22.3883 13.1027C21.3514 12.8965 20.2766 13.0023 19.2998 13.4069C18.3231 13.8114 17.4882 14.4966 16.9009 15.3756C16.3135 16.2547 16 17.2881 16 18.3454C16.0016 19.7625 16.5653 21.1211 17.5673 22.1232C18.5694 23.1253 19.928 23.689 21.3451 23.6907ZM21.3451 14.8727C22.032 14.8726 22.7035 15.0763 23.2746 15.4579C23.8458 15.8395 24.291 16.3819 24.5539 17.0165C24.8167 17.6511 24.8855 18.3494 24.7515 19.0231C24.6175 19.6968 24.2868 20.3156 23.8011 20.8013C23.3154 21.287 22.6965 21.6178 22.0228 21.7518C21.3491 21.8858 20.6508 21.817 20.0162 21.5541C19.3816 21.2912 18.8392 20.846 18.4576 20.2749C18.076 19.7037 17.8724 19.0322 17.8724 18.3454C17.8735 17.4247 18.2397 16.542 18.8907 15.891C19.5418 15.2399 20.4244 14.8737 21.3451 14.8727Z" fill="white"/>
<path d="M30.4569 17.0773H38.246C38.4943 17.0773 38.7324 16.9786 38.908 16.8031C39.0836 16.6275 39.1822 16.3894 39.1822 16.1411C39.1822 15.8928 39.0836 15.6546 38.908 15.479C38.7324 15.3035 38.4943 15.2048 38.246 15.2048H30.4569C30.2086 15.2048 29.9704 15.3035 29.7949 15.479C29.6193 15.6546 29.5207 15.8928 29.5207 16.1411C29.5207 16.3894 29.6193 16.6275 29.7949 16.8031C29.9704 16.9786 30.2086 17.0773 30.4569 17.0773Z" fill="white"/>
<path d="M30.4569 21.4861H47.0638C47.3121 21.4861 47.5502 21.3875 47.7258 21.2119C47.9014 21.0363 48 20.7982 48 20.5499C48 20.3016 47.9014 20.0634 47.7258 19.8879C47.5502 19.7123 47.3121 19.6136 47.0638 19.6136H30.4569C30.2086 19.6136 29.9704 19.7123 29.7949 19.8879C29.6193 20.0634 29.5207 20.3016 29.5207 20.5499C29.5207 20.7982 29.6193 21.0363 29.7949 21.2119C29.9704 21.3875 30.2086 21.4861 30.4569 21.4861Z" fill="white"/>
<path d="M21.3451 51.0806C22.4023 51.0806 23.4358 50.7672 24.3149 50.1798C25.194 49.5925 25.8792 48.7577 26.2838 47.7809C26.6884 46.8042 26.7942 45.7294 26.588 44.6925C26.3818 43.6556 25.8727 42.7031 25.1251 41.9555C24.3775 41.2079 23.425 40.6988 22.3881 40.4926C21.3512 40.2863 20.2764 40.3922 19.2997 40.7968C18.3229 41.2014 17.4881 41.8866 16.9008 42.7657C16.3134 43.6447 16 44.6782 16 45.7355C16.0016 47.1526 16.5653 48.5112 17.5673 49.5133C18.5694 50.5153 19.928 51.079 21.3451 51.0806ZM21.3451 42.2626C22.032 42.2625 22.7035 42.4662 23.2746 42.8477C23.8458 43.2293 24.2909 43.7717 24.5538 44.4063C24.8167 45.0409 24.8855 45.7392 24.7516 46.4129C24.6176 47.0866 24.2868 47.7054 23.8011 48.1911C23.3155 48.6768 22.6967 49.0076 22.023 49.1416C21.3493 49.2757 20.651 49.2069 20.0164 48.9441C19.3818 48.6812 18.8394 48.2361 18.4577 47.6649C18.0761 47.0938 17.8724 46.4224 17.8724 45.7355C17.8735 44.8148 18.2397 43.9321 18.8907 43.281C19.5417 42.6299 20.4244 42.2637 21.3451 42.2626Z" fill="white"/>
<path d="M30.4569 44.467H38.246C38.4943 44.467 38.7324 44.3684 38.908 44.1928C39.0836 44.0173 39.1822 43.7791 39.1822 43.5308C39.1822 43.2825 39.0836 43.0444 38.908 42.8688C38.7324 42.6932 38.4943 42.5946 38.246 42.5946H30.4569C30.2086 42.5946 29.9704 42.6932 29.7949 42.8688C29.6193 43.0444 29.5207 43.2825 29.5207 43.5308C29.5207 43.7791 29.6193 44.0173 29.7949 44.1928C29.9704 44.3684 30.2086 44.467 30.4569 44.467Z" fill="white"/>
<path d="M30.4569 48.876H47.0638C47.3121 48.876 47.5502 48.7773 47.7258 48.6018C47.9014 48.4262 48 48.1881 48 47.9398C48 47.6915 47.9014 47.4533 47.7258 47.2778C47.5502 47.1022 47.3121 47.0035 47.0638 47.0035H30.4569C30.2086 47.0035 29.9704 47.1022 29.7949 47.2778C29.6193 47.4533 29.5207 47.6915 29.5207 47.9398C29.5207 48.1881 29.6193 48.4262 29.7949 48.6018C29.9704 48.7773 30.2086 48.876 30.4569 48.876Z" fill="white"/>
</svg>
