<svg width="27" height="31" viewBox="0 0 27 31" fill="none" xmlns="http://www.w3.org/2000/svg">
<path d="M12.3629 29.7725C12.488 29.8114 12.6163 29.8536 12.7478 29.8893C12.6327 29.8536 12.4978 29.8147 12.3629 29.7725Z" fill="#000"/>
<path d="M26.5123 6.083L23.2061 3.89844C22.6501 3.94713 22.0777 4.00556 21.4855 4.0932C12.7874 5.3559 3.76023 10.4197 1.32579 15.3991C0.677707 16.7267 0.562565 17.9115 0.907991 18.9177L1.07248 19.3819C1.95414 21.4886 2.32588 22.0794 3.49704 23.6926C2.75355 22.5825 2.68776 21.177 3.49046 19.5345C5.83278 14.7369 14.5277 9.86136 22.91 8.64411C23.1666 8.60516 23.4199 8.5727 23.6666 8.54348L26.5123 6.083Z" fill="#000"/>
<path d="M13.3631 0.866686L11.307 0C6.54007 1.87944 2.50023 4.79436 1.08892 7.67682C0.967194 7.92676 0.865211 8.17346 0.789546 8.41042C0.618478 8.98172 0.43425 9.76076 0.299369 10.3418C0.0855341 11.5396 0.0756648 11.7116 0 13.3671L0.00986932 14.0552C-0.0164489 13.3314 0.171068 12.5329 0.592159 11.6727C2.20744 8.36498 6.8526 5.02158 12.3301 2.86948L13.3631 0.866686Z" fill="#000"/>
<path d="M10.2477 25.3676C11.8235 22.1443 17.4062 18.8755 23.0416 17.7686L25.7885 15.0063L22.0843 13.1041C15.0902 14.5421 8.22444 18.5996 6.27032 22.5987C5.2768 24.6307 5.73079 26.2862 7.27699 27.3509C7.58951 27.5651 8.02377 27.828 8.34287 28.0358C9.71471 28.7889 10.07 28.9544 11.5438 29.5192C11.784 29.6004 12.0833 29.688 12.3663 29.7724C10.1358 29.0485 9.22453 27.4612 10.2477 25.3676Z" fill="#000"/>
<path d="M18.9294 28.6525C18.8373 28.4253 18.8537 28.1559 19.0017 27.8508C19.005 27.8443 19.0116 27.8345 19.0149 27.828C19.0182 27.8215 19.0215 27.8151 19.0248 27.8053C19.538 26.8283 21.1927 25.848 22.9001 25.4779L24.7786 23.1505L21.9625 21.9203C18.4326 22.9006 15.179 24.9618 14.1822 27.0003C12.9979 29.4283 15.4652 30.8955 19.6992 30.2885L19.7321 30.2853C20.2091 30.2171 20.242 30.2106 21.1105 30.0288C21.1533 30.0191 21.1894 30.0126 21.2256 30.0029C20.0183 29.8016 19.1366 29.3147 18.9294 28.6525Z" fill="#000"/>
</svg>
