<svg width="163" height="163" viewBox="0 0 163 163" fill="none" xmlns="http://www.w3.org/2000/svg">
<g clip-path="url(#clip0_7687_473777)">
<path d="M149.25 162.04C156.314 162.04 162.04 156.314 162.04 149.25C162.04 142.186 156.314 136.46 149.25 136.46C142.186 136.46 136.46 142.186 136.46 149.25C136.46 156.314 142.186 162.04 149.25 162.04Z" fill="#61D5A1"/>
<path d="M12.79 25.58C19.8537 25.58 25.58 19.8537 25.58 12.79C25.58 5.72628 19.8537 0 12.79 0C5.72628 0 0 5.72628 0 12.79C0 19.8537 5.72628 25.58 12.79 25.58Z" fill="#61D5A1"/>
<path d="M54.0199 107.9C68.8999 122.78 93.0199 122.78 107.9 107.9C122.78 93.02 122.78 68.9 107.9 54.02C95.0599 41.18 75.3599 39.45 60.6399 48.76C82.6499 32.48 113.84 34.31 133.78 54.25C155.74 76.21 155.74 111.81 133.78 133.77C111.82 155.73 76.2199 155.73 54.2599 133.77C34.3199 113.83 32.4899 82.64 48.7699 60.63C39.4499 75.36 41.1899 95.07 54.0199 107.9Z" fill="url(#paint0_linear_7687_473777)"/>
<path d="M54.14 54.14C39.26 69.02 39.26 93.14 54.14 108.02C66.98 120.86 86.68 122.59 101.4 113.28C79.39 129.56 48.2 127.73 28.26 107.79C6.30004 85.82 6.30004 50.22 28.26 28.26C50.22 6.30004 85.82 6.30004 107.78 28.26C112.33 32.81 115.93 37.96 118.6 43.44C100.07 34.43 77.62 36.2 60.64 48.76" fill="url(#paint1_linear_7687_473777)"/>
</g>
<defs>
<linearGradient id="paint0_linear_7687_473777" x1="108.624" y1="39.6671" x2="79.5137" y2="148.309" gradientUnits="userSpaceOnUse">
<stop stop-color="#141E40"/>
<stop offset="0.9152" stop-color="#61D5A1"/>
</linearGradient>
<linearGradient id="paint1_linear_7687_473777" x1="22.0033" y1="100.246" x2="114.132" y2="35.7362" gradientUnits="userSpaceOnUse">
<stop stop-color="#141E40"/>
<stop offset="0.854" stop-color="#61D5A1"/>
</linearGradient>
<clipPath id="clip0_7687_473777">
<rect width="162.04" height="162.04" fill="white"/>
</clipPath>
</defs>
</svg>
