<svg width="480" height="47" viewBox="0 0 480 47" fill="none" xmlns="http://www.w3.org/2000/svg">
<g clip-path="url(#clip0_1329_23367)">
<path d="M12.3629 29.7725C12.488 29.8114 12.6163 29.8536 12.7478 29.8893C12.6327 29.8536 12.4978 29.8147 12.3629 29.7725Z" fill="#CCC"/>
<path d="M26.5123 6.083L23.2061 3.89844C22.6501 3.94713 22.0777 4.00556 21.4855 4.0932C12.7874 5.3559 3.76023 10.4197 1.32579 15.3991C0.677707 16.7267 0.562565 17.9115 0.907991 18.9177L1.07248 19.3819C1.95414 21.4886 2.32588 22.0794 3.49704 23.6926C2.75355 22.5825 2.68776 21.177 3.49046 19.5345C5.83278 14.7369 14.5277 9.86136 22.91 8.64411C23.1666 8.60516 23.4199 8.5727 23.6666 8.54348L26.5123 6.083Z" fill="#CCC"/>
<path d="M13.3631 0.866686L11.307 0C6.54007 1.87944 2.50023 4.79436 1.08892 7.67682C0.967194 7.92676 0.865211 8.17346 0.789546 8.41042C0.618478 8.98172 0.43425 9.76076 0.299369 10.3418C0.0855341 11.5396 0.0756648 11.7116 0 13.3671L0.00986932 14.0552C-0.0164489 13.3314 0.171068 12.5329 0.592159 11.6727C2.20744 8.36498 6.8526 5.02158 12.3301 2.86948L13.3631 0.866686Z" fill="#CCC"/>
<path d="M10.2477 25.3676C11.8235 22.1443 17.4062 18.8755 23.0416 17.7686L25.7885 15.0063L22.0843 13.1041C15.0902 14.5421 8.22444 18.5996 6.27032 22.5987C5.2768 24.6307 5.73079 26.2862 7.27699 27.3509C7.58951 27.5651 8.02377 27.828 8.34287 28.0358C9.71471 28.7889 10.07 28.9544 11.5438 29.5192C11.784 29.6004 12.0833 29.688 12.3663 29.7724C10.1358 29.0485 9.22453 27.4612 10.2477 25.3676Z" fill="#CCC"/>
<path d="M18.9294 28.6525C18.8373 28.4253 18.8537 28.1559 19.0017 27.8508C19.005 27.8443 19.0116 27.8345 19.0149 27.828C19.0182 27.8215 19.0215 27.8151 19.0248 27.8053C19.538 26.8283 21.1927 25.848 22.9001 25.4779L24.7786 23.1505L21.9625 21.9203C18.4326 22.9006 15.179 24.9618 14.1822 27.0003C12.9979 29.4283 15.4652 30.8955 19.6992 30.2885L19.7321 30.2853C20.2091 30.2171 20.242 30.2106 21.1105 30.0288C21.1533 30.0191 21.1894 30.0126 21.2256 30.0029C20.0183 29.8016 19.1366 29.3147 18.9294 28.6525Z" fill="#CCC"/>
<path d="M85.7381 22.8487C81.3594 22.8487 77.0399 22.8487 72.6448 22.8487C72.9178 24.4263 73.4968 25.7539 75.0167 26.3187C77.4742 27.2341 79.6224 26.6563 81.3726 24.66C82.6128 25.5884 83.8234 26.4973 85.0768 27.4354C84.0669 28.7338 82.8398 29.6783 81.3462 30.2464C78.3032 31.402 75.2338 31.4669 72.227 30.1588C69.5721 29.0032 67.9075 26.9517 67.2528 24.1764C66.4469 20.7648 66.8416 17.4993 69.0622 14.6753C71.2927 11.8383 74.4048 10.9683 77.892 11.4585C81.4252 11.9551 83.7741 14.0001 85.0143 17.2883C85.6789 19.0412 85.8434 20.8752 85.7381 22.8487ZM72.7501 19.2879C75.1812 19.2879 77.5663 19.2879 79.9514 19.2879C79.8724 17.3792 78.3328 15.7854 76.5366 15.7237C74.5496 15.6556 73.0231 17.0708 72.7501 19.2879Z" fill="#CCC"/>
<path d="M111.523 19.2261C111.681 17.1032 110.392 15.8632 108.214 15.9282C106.793 15.9703 105.572 16.48 104.546 17.4408C104.437 17.5414 104.325 17.642 104.213 17.7394C104.2 17.7524 104.171 17.7492 104.233 17.7362C103.115 16.6812 102.029 15.6587 100.904 14.5973C101.782 13.5326 102.842 12.7925 104.062 12.2959C106.997 11.0981 109.997 11.0169 112.954 12.1141C115.665 13.1204 116.925 15.2692 117.119 18.0381C117.221 19.4988 117.188 20.9725 117.195 22.4364C117.205 24.8807 117.198 27.3281 117.198 29.7756C117.198 30.0061 117.198 30.2366 117.198 30.5222C115.356 30.5222 113.566 30.5222 111.701 30.5222C111.701 29.9347 111.701 29.3764 111.701 28.7272C109.467 31.2915 106.75 31.5674 103.829 30.5969C101.348 29.7724 99.9631 27.5521 100.072 24.9358C100.18 22.3585 101.638 20.5829 104.246 19.8136C106.217 19.2326 108.24 19.2229 110.27 19.2229C110.671 19.2261 111.079 19.2261 111.523 19.2261ZM111.56 22.6993C110.224 22.7707 108.915 22.8032 107.618 22.9298C107.145 22.9752 106.668 23.1992 106.243 23.4362C105.579 23.8062 105.342 24.4457 105.401 25.1728C105.46 25.9161 105.77 26.5394 106.503 26.8445C107.852 27.4093 109.128 27.2308 110.26 26.3284C111.392 25.426 111.767 24.2185 111.56 22.6993Z" fill="#CCC"/>
<path d="M126.811 30.558C124.916 30.558 123.13 30.558 121.291 30.558C121.291 24.3289 121.291 18.1128 121.291 11.848C123.057 11.848 124.834 11.848 126.692 11.848C126.692 12.4777 126.692 13.0977 126.692 13.8832C128.41 11.7149 130.614 11.1728 133.068 11.3806C136.128 11.6435 138.213 13.6852 138.578 16.6975C138.647 17.2656 138.677 17.8434 138.68 18.4147C138.69 22.1995 138.684 25.9844 138.684 29.7692C138.684 29.9997 138.684 30.2302 138.684 30.5191C136.825 30.5191 135.012 30.5191 133.111 30.5191C133.111 30.2659 133.111 30.0192 133.111 29.7725C133.111 26.4128 133.111 23.0532 133.108 19.6936C133.108 19.3333 133.091 18.9697 133.055 18.6127C132.946 17.535 132.558 16.5937 131.449 16.2009C130.278 15.7854 129.143 15.9315 128.166 16.7397C127.192 17.5447 126.817 18.6322 126.814 19.8591C126.808 23.1766 126.811 26.494 126.811 29.8114C126.811 30.0386 126.811 30.2659 126.811 30.558Z" fill="#CCC"/>
<path d="M51.6001 14.1461C50.6198 15.2302 49.6361 16.3176 48.6196 17.4408C46.9056 16.0417 44.9317 15.5873 42.7967 15.7366C42.2736 15.7723 41.7077 15.8827 41.257 16.1326C40.9412 16.3079 40.6287 16.7656 40.6155 17.1097C40.6024 17.418 40.9281 17.8984 41.2274 18.0283C41.9282 18.3302 42.6947 18.4957 43.4447 18.6678C45.0337 19.0346 46.6753 19.2391 48.2149 19.7487C50.4849 20.5018 51.8008 22.1345 51.8731 24.5658C51.9488 27.0749 50.8665 28.9609 48.5834 30.1164C46.4977 31.1714 44.2442 31.3207 41.9611 31.1487C39.2404 30.9442 36.7172 30.1781 34.5953 28.3896C34.4012 28.2273 34.2235 28.0487 33.9932 27.8345C35.0723 26.7114 36.1184 25.6207 37.0626 24.6404C38.191 25.2182 39.2141 25.8479 40.3129 26.2732C41.6321 26.7828 43.05 26.8315 44.458 26.6919C44.7968 26.6594 45.1357 26.5588 45.4581 26.442C46.0206 26.2375 46.4352 25.8674 46.445 25.2312C46.4516 24.6112 46.0437 24.2217 45.4943 24.0821C44.4119 23.8094 43.2967 23.6601 42.2177 23.3777C40.8096 23.0109 39.3588 22.7058 38.0429 22.1183C36.0263 21.2159 35.1216 19.4793 35.1282 17.3207C35.1348 15.1328 36.1349 13.4644 38.0857 12.4387C40.8096 11.0104 43.7145 11.0007 46.6523 11.5947C48.6623 11.9972 50.6066 13.0359 51.6001 14.1461Z" fill="#CCC"/>
<path d="M99.4696 5.13196C99.1735 6.45308 98.8807 7.75149 98.5748 9.11806C98.1241 9.05963 97.7063 8.99471 97.2885 8.95576C95.1567 8.75775 94.3441 9.60172 94.6303 11.7798C96.0778 11.7798 97.5319 11.7798 99.0452 11.7798C99.0452 13.2924 99.0452 14.7434 99.0452 16.269C97.5845 16.269 96.1305 16.269 94.5843 16.269C94.5843 21.0634 94.5843 25.7896 94.5843 30.545C92.6894 30.545 90.8899 30.545 89.018 30.545C89.018 25.8155 88.995 11.1241 88.9982 10.8125C89.0443 7.32951 90.7681 5.28127 94.2454 4.71322C95.9824 4.42757 97.7161 4.58663 99.4696 5.13196Z" fill="#CCC"/>
<path d="M64.6177 26.1791C64.9895 27.6073 65.3481 28.9804 65.7231 30.4184C63.7492 31.0124 61.7787 31.2656 59.7719 30.9897C59.0152 30.8858 58.2421 30.6716 57.5579 30.3437C55.6103 29.3991 54.9326 27.669 54.9063 25.6597C54.8668 22.7903 54.8932 19.9175 54.8932 17.0481C54.8932 16.85 54.88 10.2736 54.8767 7.37493C54.8767 6.74845 55.2814 6.19014 55.8867 5.99213C57.3704 5.49874 58.6632 5.08 60.4759 4.39185V11.809H65.075V16.2723H60.5318C60.5088 16.5287 60.4825 16.7137 60.4825 16.8987C60.4792 19.2164 60.4792 21.534 60.4825 23.8517C60.4825 23.9166 60.4825 23.9783 60.4858 24.0432C60.5516 26.085 61.272 26.6855 63.338 26.4063C63.7361 26.3446 64.1341 26.2635 64.6177 26.1791Z" fill="#CCC"/>
<path d="M148.247 30.545C146.408 30.545 144.609 30.545 142.76 30.545C142.76 24.3192 142.76 18.1063 142.76 11.8447C144.579 11.8447 146.395 11.8447 148.247 11.8447C148.247 18.0706 148.247 24.2672 148.247 30.545Z" fill="#CCC"/>
<path d="M157.86 30.558C155.965 30.558 154.179 30.558 152.34 30.558C152.34 24.3289 152.34 18.1128 152.34 11.848C154.106 11.848 155.883 11.848 157.741 11.848C157.741 12.4777 157.741 13.0977 157.741 13.8832C159.459 11.7149 161.663 11.1728 164.117 11.3806C167.176 11.6435 169.262 13.6852 169.627 16.6975C169.696 17.2656 169.726 17.8434 169.729 18.4147C169.739 22.1995 169.733 25.9844 169.733 29.7692C169.733 29.9997 169.733 30.2302 169.733 30.5191C167.874 30.5191 166.061 30.5191 164.16 30.5191C164.16 30.2659 164.16 30.0192 164.16 29.7725C164.16 26.4128 164.16 23.0532 164.156 19.6936C164.156 19.3333 164.14 18.9697 164.104 18.6127C163.995 17.535 163.607 16.5937 162.498 16.2009C161.327 15.7854 160.192 15.9315 159.215 16.7397C158.241 17.5447 157.866 18.6322 157.863 19.8591C157.857 23.1766 157.86 26.494 157.86 29.8114C157.86 30.0386 157.86 30.2659 157.86 30.558Z" fill="#CCC"/>
<path d="M179.296 30.545C177.457 30.545 175.658 30.545 173.809 30.545C173.809 24.3192 173.809 18.1063 173.809 11.8447C175.628 11.8447 177.444 11.8447 179.296 11.8447C179.296 18.0706 179.296 24.2672 179.296 30.545Z" fill="#CCC"/>
<path d="M129.91 37.7609C129.535 37.4006 129.084 37.1214 128.561 36.9202C128.035 36.7222 127.515 36.6215 127.002 36.6215C125.785 36.6215 124.827 37.0078 124.133 37.7804C123.439 38.5529 123.093 39.504 123.093 40.6304C123.093 41.6951 123.432 42.5942 124.113 43.3343C124.794 44.0744 125.765 44.4444 127.031 44.4444C128.054 44.4444 128.949 44.1166 129.716 43.4609V41.1595H126.65V40.0915H130.824V43.9348C129.785 45.0352 128.515 45.587 127.015 45.587C126.173 45.587 125.416 45.4539 124.745 45.1845C124.074 44.9151 123.534 44.5515 123.13 44.0874C122.722 43.6264 122.413 43.1006 122.202 42.513C121.991 41.9255 121.886 41.299 121.886 40.6336C121.876 39.1437 122.337 37.9167 123.265 36.9494C124.192 35.9821 125.439 35.4984 127.005 35.4984C128.42 35.4984 129.624 35.9853 130.617 36.9559L129.91 37.7609Z" fill="#CCC"/>
<path d="M138.529 41.9093H136.137V45.4052H134.914V35.6964H139.384C140.434 35.6964 141.253 36.0015 141.839 36.6118C142.424 37.222 142.717 37.9524 142.717 38.8028C142.727 39.5981 142.497 40.2798 142.029 40.8478C141.562 41.4159 140.848 41.7372 139.891 41.8119L143.138 45.4052H141.592L138.529 41.9093ZM140.94 40.2668C141.312 39.8935 141.496 39.4131 141.496 38.8321C141.506 38.2965 141.322 37.8193 140.947 37.4038C140.572 36.9883 140.052 36.7806 139.388 36.7806H136.141V40.8316H139.332C140.033 40.8284 140.569 40.6401 140.94 40.2668Z" fill="#CCC"/>
<path d="M154.698 37.0273C155.573 38.0174 156.008 39.2022 155.998 40.5785C155.998 41.2244 155.893 41.8444 155.682 42.4385C155.471 43.0292 155.166 43.5648 154.767 44.042C154.369 44.5191 153.846 44.8989 153.202 45.1781C152.553 45.4605 151.823 45.6001 151.007 45.6001C150.191 45.6001 149.458 45.4605 148.806 45.1781C148.155 44.8957 147.629 44.5159 147.231 44.042C146.833 43.5648 146.527 43.0325 146.316 42.4482C146.105 41.8607 146 41.2374 146 40.5817C146 39.1405 146.457 37.9362 147.372 36.9754C148.287 36.0146 149.501 35.5342 151.02 35.5342C152.596 35.5374 153.82 36.0373 154.698 37.0273ZM154.396 38.6861C154.133 38.1083 153.708 37.6246 153.123 37.2351C152.537 36.8456 151.836 36.6476 151.02 36.6378C149.82 36.6378 148.889 37.0144 148.224 37.7674C147.56 38.5205 147.227 39.4586 147.227 40.5752C147.227 41.6497 147.556 42.565 148.211 43.3214C148.866 44.0809 149.803 44.4575 151.024 44.4575C152.234 44.4575 153.162 44.0744 153.807 43.3051C154.455 42.5391 154.777 41.6269 154.777 40.572C154.784 39.8936 154.659 39.2638 154.396 38.6861Z" fill="#CCC"/>
<path d="M167.752 35.7093V41.5359C167.752 42.8214 167.371 43.8179 166.607 44.5255C165.844 45.2331 164.893 45.587 163.762 45.587C162.637 45.587 161.683 45.2364 160.9 44.532C160.117 43.8276 159.725 42.8311 159.725 41.5359V35.7093H160.936V41.5359C160.936 42.461 161.209 43.1817 161.752 43.701C162.294 44.2204 162.966 44.4768 163.762 44.4768C164.558 44.4768 165.222 44.2139 165.752 43.6848C166.282 43.1557 166.545 42.4351 166.545 41.5197V35.6931H167.739L167.752 35.7093Z" fill="#CCC"/>
<path d="M173.325 45.4052H172.114V35.6964H176.585C177.204 35.6964 177.756 35.8165 178.243 36.0567C178.73 36.2969 179.102 36.6118 179.355 37.0013C179.609 37.3908 179.793 37.8161 179.911 38.2835C180.03 38.7509 180.03 39.2183 179.911 39.6858C179.793 40.1532 179.609 40.5784 179.355 40.9614C179.102 41.3445 178.733 41.6593 178.243 41.906C177.756 42.1527 177.204 42.2728 176.585 42.2728H173.325V45.4052ZM177.789 40.8284C178.131 40.6141 178.378 40.348 178.526 40.0233C178.677 39.6987 178.75 39.3514 178.75 38.9814C178.75 38.6113 178.674 38.264 178.526 37.9394C178.375 37.6148 178.131 37.3486 177.789 37.1344C177.447 36.9202 177.046 36.8163 176.588 36.8163H173.328V41.1432H176.588C177.046 41.1465 177.447 41.0394 177.789 40.8284Z" fill="#CCC"/>
</g>
<line x1="210.5" y1="2" x2="210.5" y2="47" stroke="#CCC"/>
<path opacity="0.6" d="M251.832 18.778L253.548 17.712C252.794 16.464 251.858 15.58 250.714 15.112C249.57 14.644 248.218 14.41 246.658 14.41C245.826 14.41 244.994 14.514 244.214 14.696C243.434 14.878 242.68 15.164 241.978 15.528C241.276 15.918 240.704 16.464 240.288 17.14C239.872 17.816 239.664 18.622 239.69 19.506C239.69 20.234 239.82 20.858 240.08 21.404C240.34 21.95 240.678 22.392 241.094 22.73C241.484 23.068 242.004 23.354 242.68 23.614C243.33 23.874 243.928 24.056 244.5 24.186C245.072 24.316 245.774 24.446 246.606 24.55C247.386 24.68 248.062 24.81 248.608 24.94C249.154 25.096 249.7 25.278 250.246 25.512C250.766 25.772 251.182 26.084 251.442 26.474C251.702 26.89 251.858 27.358 251.858 27.878C251.858 28.528 251.676 29.074 251.364 29.542C251.052 30.01 250.61 30.348 250.09 30.582C249.57 30.842 249.024 30.998 248.452 31.102C247.88 31.206 247.308 31.258 246.71 31.258C245.514 31.258 244.396 30.998 243.304 30.426C242.212 29.88 241.406 29.1 240.86 28.06L238.988 29.152C239.638 30.608 240.652 31.674 242.03 32.35C243.382 33.026 244.942 33.364 246.684 33.364C247.594 33.364 248.478 33.286 249.31 33.078C250.142 32.896 250.922 32.61 251.65 32.194C252.378 31.804 252.976 31.232 253.418 30.504C253.86 29.776 254.094 28.944 254.094 27.956C254.094 27.176 253.938 26.474 253.652 25.876C253.366 25.278 253.028 24.81 252.638 24.446C252.222 24.108 251.676 23.796 250.948 23.536C250.22 23.276 249.596 23.068 249.05 22.938C248.478 22.834 247.75 22.704 246.866 22.548C246.086 22.444 245.436 22.314 244.916 22.184C244.396 22.054 243.902 21.872 243.408 21.638C242.888 21.43 242.524 21.144 242.29 20.78C242.03 20.442 241.926 20.026 241.926 19.558C241.926 18.544 242.394 17.764 243.33 17.244C244.266 16.724 245.41 16.438 246.71 16.438C247.776 16.464 248.79 16.672 249.726 17.062C250.662 17.452 251.364 18.024 251.832 18.778ZM260.284 33H262.52V24.446L271.386 33H274.194V32.844L264.678 23.562L273.414 14.93V14.8H270.58L262.52 22.834V14.8H260.284V33ZM279.21 33H281.472V14.8H279.21V33ZM291.181 14.8H288.919V33H301.087V30.894H291.181V14.8ZM308.838 14.8H306.576V33H318.744V30.894H308.838V14.8ZM348.66 18.076V33H350.896V14.8H348.192L341.848 24.16L335.452 14.8H332.748V33H334.984V18.024L341.588 27.28H342.056L348.66 18.076ZM364.515 14.8L356.351 33H358.821L360.589 28.996H370.989L372.783 33H375.227L367.063 14.8H364.515ZM370.105 26.916H361.473L365.789 17.088L370.105 26.916ZM382.917 27.124H388.949C390.093 27.124 391.107 26.916 392.017 26.448C392.901 25.98 393.603 25.408 394.071 24.68C394.539 23.952 394.877 23.172 395.085 22.288C395.293 21.404 395.293 20.546 395.085 19.662C394.877 18.778 394.539 17.972 394.071 17.244C393.603 16.516 392.901 15.944 392.017 15.476C391.107 15.034 390.093 14.8 388.949 14.8H380.681V33H382.917V27.124ZM388.949 25.018H382.917V16.906H388.949C389.781 16.906 390.535 17.114 391.159 17.504C391.783 17.92 392.251 18.414 392.537 19.012C392.797 19.636 392.953 20.286 392.953 20.962C392.953 21.664 392.797 22.314 392.537 22.912C392.251 23.536 391.783 24.03 391.159 24.42C390.535 24.836 389.781 25.018 388.949 25.018ZM403.29 27.124H409.322C410.466 27.124 411.48 26.916 412.39 26.448C413.274 25.98 413.976 25.408 414.444 24.68C414.912 23.952 415.25 23.172 415.458 22.288C415.666 21.404 415.666 20.546 415.458 19.662C415.25 18.778 414.912 17.972 414.444 17.244C413.976 16.516 413.274 15.944 412.39 15.476C411.48 15.034 410.466 14.8 409.322 14.8H401.054V33H403.29V27.124ZM409.322 25.018H403.29V16.906H409.322C410.154 16.906 410.908 17.114 411.532 17.504C412.156 17.92 412.624 18.414 412.91 19.012C413.17 19.636 413.326 20.286 413.326 20.962C413.326 21.664 413.17 22.314 412.91 22.912C412.624 23.536 412.156 24.03 411.532 24.42C410.908 24.836 410.154 25.018 409.322 25.018ZM421.428 33H423.69V14.8H421.428V33ZM431.137 14.8V33H433.373V19.116L444.553 33H446.113V14.8H443.877V28.736L432.723 14.8H431.137ZM468.622 17.166C466.776 15.346 464.54 14.436 461.94 14.436C459.028 14.436 456.74 15.346 455.024 17.166C453.308 18.986 452.45 21.274 452.476 24.056C452.476 25.304 452.658 26.5 453.048 27.592C453.438 28.684 454.01 29.672 454.764 30.53C455.518 31.414 456.506 32.09 457.754 32.584C459.002 33.104 460.406 33.338 461.966 33.338C464.722 33.338 467.088 32.324 469.012 30.244V23.042H461.29V25.044H466.958V29.36C465.528 30.608 463.864 31.206 461.992 31.206C459.652 31.206 457.832 30.53 456.584 29.126C455.336 27.748 454.712 26.058 454.712 24.056C454.712 21.95 455.336 20.182 456.636 18.726C457.91 17.27 459.678 16.542 461.94 16.542C462.876 16.542 463.838 16.75 464.826 17.114C465.788 17.478 466.62 17.998 467.322 18.674L468.622 17.166Z" fill="#CCC"/>
<defs>
<clipPath id="clip0_1329_23367">
<rect width="180" height="45.6" fill="white"/>
</clipPath>
</defs>
</svg>
