<svg width="64" height="64" viewBox="0 0 64 64" fill="none" xmlns="http://www.w3.org/2000/svg">
<circle cx="32" cy="32" r="32" fill="#01B8C4"/>
<path d="M30.9219 49.9349C31.0728 49.982 31.2277 50.0329 31.3865 50.076C31.2475 50.0329 31.0847 49.9859 30.9219 49.9349Z" fill="white"/>
<path d="M48 21.3421L44.0095 18.7053C43.3384 18.7641 42.6475 18.8346 41.9328 18.9404C31.4342 20.4645 20.5386 26.5764 17.6002 32.5864C16.818 34.1889 16.679 35.6189 17.096 36.8334L17.2945 37.3937C18.3586 39.9364 18.8073 40.6495 20.2209 42.5967C19.3235 41.2567 19.2441 39.5603 20.213 37.5778C23.0401 31.7872 33.5347 25.9025 43.6521 24.4333C43.9618 24.3863 44.2676 24.3471 44.5654 24.3118L48 21.3421Z" fill="white"/>
<path d="M32.129 15.0461L29.6474 14C23.8938 16.2685 19.0177 19.7867 17.3143 23.2658C17.1674 23.5675 17.0443 23.8653 16.953 24.1513C16.7465 24.8408 16.5241 25.7811 16.3613 26.4824C16.1032 27.9281 16.0913 28.1358 16 30.1339L16.0119 30.9645C15.9801 30.0908 16.2065 29.127 16.7147 28.0888C18.6644 24.0964 24.271 20.061 30.8822 17.4634L32.129 15.0461Z" fill="white"/>
<path d="M28.3688 44.6183C30.2708 40.7279 37.0091 36.7826 43.8109 35.4465L47.1264 32.1124L42.6554 29.8165C34.2137 31.5522 25.9268 36.4495 23.5682 41.2764C22.369 43.729 22.917 45.7271 24.7832 47.0122C25.1605 47.2708 25.6846 47.5881 26.0697 47.8389C27.7255 48.7478 28.1544 48.9476 29.9333 49.6293C30.2231 49.7273 30.5845 49.8331 30.9259 49.9349C28.2338 49.0612 27.1339 47.1454 28.3688 44.6183Z" fill="white"/>
<path d="M38.8475 48.5832C38.7363 48.309 38.7562 47.9838 38.9349 47.6155C38.9388 47.6077 38.9468 47.5959 38.9508 47.5881C38.9547 47.5803 38.9587 47.5724 38.9627 47.5607C39.5821 46.3814 41.5794 45.1982 43.6402 44.7515L45.9075 41.9424L42.5085 40.4575C38.2479 41.6407 34.3209 44.1286 33.1178 46.589C31.6883 49.5196 34.6664 51.2905 39.7767 50.5579L39.8164 50.5539C40.3921 50.4717 40.4318 50.4638 41.4801 50.2444C41.5317 50.2327 41.5754 50.2248 41.6191 50.2131C40.1618 49.9702 39.0977 49.3825 38.8475 48.5832Z" fill="white"/>
</svg>
